<?xml version="1.0" encoding="UTF-8" standalone="no" ?>
<!DOCTYPE svg PUBLIC "-//W3C//DTD SVG 1.1//EN" "http://www.w3.org/Graphics/SVG/1.1/DTD/svg11.dtd">
<svg xmlns="http://www.w3.org/2000/svg" xmlns:xlink="http://www.w3.org/1999/xlink" version="1.1" width="1280" height="1024" viewBox="0 0 1280 1024" xml:space="preserve">
<desc>Created with Fabric.js 5.3.0</desc>
<defs>
</defs>
<g transform="matrix(1 0 0 1 640 512)" id="background-logo"  >
<rect style="stroke: none; stroke-width: 0; stroke-dasharray: none; stroke-linecap: butt; stroke-dashoffset: 0; stroke-linejoin: miter; stroke-miterlimit: 4; fill: rgb(255,255,255); fill-opacity: 0; fill-rule: nonzero; opacity: 1;"  paint-order="stroke"  x="-640" y="-512" rx="0" ry="0" width="1280" height="1024" />
</g>
<g transform="matrix(1.9211538461538462 0 0 1.9211538461538462 640 395.6864080388972)" id="logo-logo"  >
<g style=""  paint-order="stroke"   >
		<g transform="matrix(0.917930923744532 0 0 0.9179309237445321 0 0)"  >
<g style=""  paint-order="stroke"   >
		<g transform="matrix(1 0 0 1 0 0)"  >
<linearGradient id="SVGID_2_165698" gradientUnits="userSpaceOnUse" gradientTransform="matrix(1 0 0 1 -100 -100)"  x1="0" y1="0" x2="0" y2="200">
<stop offset="0%" style="stop-color:rgb(23,234,217);stop-opacity: 1"/>
<stop offset="100%" style="stop-color:rgb(96,120,234);stop-opacity: 1"/>
</linearGradient>
<polygon style="stroke: none; stroke-width: 1; stroke-dasharray: none; stroke-linecap: butt; stroke-dashoffset: 0; stroke-linejoin: miter; stroke-miterlimit: 4; fill: url(#SVGID_2_165698); fill-rule: nonzero; opacity: 1;"  paint-order="stroke"  points="100,100 0,100 0,95.12 95.12,95.12 95.12,-95.12 -95.12,-95.12 -95.12,0 -100,0 -100,-100 100,-100 100,100 " />
</g>
</g>
</g>
</g>
</g>
<g transform="matrix(1.9211538461538462 0 0 1.9211538461538462 637.3169510591947 814.3498935764396)" id="text-logo"  >
<g style=""  paint-order="stroke"   >
		<g transform="matrix(1 0 0 1 0 0)" id="text-logo-path-0"  >
<path style="stroke: rgb(255,255,255); stroke-width: 0; stroke-dasharray: none; stroke-linecap: butt; stroke-dashoffset: 0; stroke-linejoin: miter; stroke-miterlimit: 4; fill: rgb(49,192,223); fill-rule: nonzero; opacity: 1;"  paint-order="stroke"  transform=" translate(-205.1, 11.02)" d="M 7.6 -22.9 L 7.6 -4.55 Q 7.6 -1.58 7 0.59 Q 6.39 2.77 5.31 4.45 Q 4.22 6.13 2.74 7.45 Q 1.25 8.77 -0.51 10.04 L -0.51 10.04 L -0.9 9.49 Q 0.62 8.11 1.51 6.61 Q 2.4 5.12 2.87 3.42 Q 3.34 1.71 3.47 -0.25 Q 3.6 -2.22 3.6 -4.55 L 3.6 -4.55 L 3.6 -22.9 Q 3.6 -24.76 3.56 -26.16 Q 3.52 -27.55 3.43 -28.58 Q 3.34 -29.6 3.22 -30.28 Q 3.1 -30.96 2.97 -31.42 L 2.97 -31.42 L 2.97 -31.51 L 8.24 -31.51 L 8.24 -31.42 Q 8.11 -30.96 7.99 -30.28 Q 7.87 -29.6 7.78 -28.58 Q 7.69 -27.55 7.65 -26.16 Q 7.6 -24.76 7.6 -22.9 L 7.6 -22.9 Z M 34.8 0 L 34.8 -0.09 Q 34.93 -0.55 35.04 -1.23 Q 35.15 -1.91 35.24 -2.92 Q 35.32 -3.93 35.37 -5.33 Q 35.41 -6.72 35.41 -8.59 L 35.41 -8.59 L 35.41 -22.9 Q 35.41 -24.76 35.37 -26.16 Q 35.32 -27.55 35.24 -28.58 Q 35.15 -29.6 35.04 -30.28 Q 34.93 -30.96 34.8 -31.42 L 34.8 -31.42 L 34.8 -31.51 L 40.05 -31.51 L 40.05 -31.42 Q 39.92 -30.96 39.79 -30.28 Q 39.67 -29.6 39.6 -28.58 Q 39.52 -27.55 39.47 -26.16 Q 39.41 -24.76 39.41 -22.9 L 39.41 -22.9 L 39.41 -8.59 Q 39.41 -6.72 39.47 -5.33 Q 39.52 -3.93 39.6 -2.92 Q 39.67 -1.91 39.79 -1.23 Q 39.92 -0.55 40.05 -0.09 L 40.05 -0.09 L 40.05 0 L 34.8 0 Z M 66.6 -31.51 L 68.01 -31.51 L 90.64 -7.43 L 90.64 -22.9 Q 90.64 -24.76 90.6 -26.16 Q 90.55 -27.55 90.47 -28.58 Q 90.38 -29.6 90.26 -30.28 Q 90.14 -30.96 90 -31.42 L 90 -31.42 L 90 -31.51 L 93.92 -31.51 L 93.92 -31.42 Q 93.78 -30.96 93.67 -30.28 Q 93.56 -29.6 93.48 -28.58 Q 93.39 -27.55 93.34 -26.16 Q 93.3 -24.76 93.3 -22.9 L 93.3 -22.9 L 93.3 0.44 L 92.53 0.44 L 69.9 -23.62 L 69.9 -8.59 Q 69.9 -6.72 69.94 -5.33 Q 69.99 -3.93 70.08 -2.92 Q 70.16 -1.91 70.27 -1.23 Q 70.38 -0.55 70.51 -0.09 L 70.51 -0.09 L 70.51 0 L 66.6 0 L 66.6 -0.09 Q 66.74 -0.55 66.86 -1.23 Q 66.98 -1.91 67.06 -2.92 Q 67.15 -3.93 67.2 -5.33 Q 67.24 -6.72 67.24 -8.59 L 67.24 -8.59 L 67.24 -22.9 Q 67.24 -24.76 67.2 -26.16 Q 67.15 -27.55 67.06 -28.58 Q 66.98 -29.6 66.86 -30.28 Q 66.74 -30.96 66.6 -31.42 L 66.6 -31.42 L 66.6 -31.51 Z M 120.1 -31.51 L 121.5 -31.51 L 144.14 -7.43 L 144.14 -22.9 Q 144.14 -24.76 144.09 -26.16 Q 144.05 -27.55 143.96 -28.58 Q 143.87 -29.6 143.75 -30.28 Q 143.63 -30.96 143.5 -31.42 L 143.5 -31.42 L 143.5 -31.51 L 147.41 -31.51 L 147.41 -31.42 Q 147.28 -30.96 147.17 -30.28 Q 147.06 -29.6 146.97 -28.58 Q 146.88 -27.55 146.84 -26.16 Q 146.79 -24.76 146.79 -22.9 L 146.79 -22.9 L 146.79 0.44 L 146.03 0.44 L 123.39 -23.62 L 123.39 -8.59 Q 123.39 -6.72 123.44 -5.33 Q 123.48 -3.93 123.57 -2.92 Q 123.66 -1.91 123.77 -1.23 Q 123.88 -0.55 124.01 -0.09 L 124.01 -0.09 L 124.01 0 L 120.1 0 L 120.1 -0.09 Q 120.23 -0.55 120.35 -1.23 Q 120.47 -1.91 120.56 -2.92 Q 120.65 -3.93 120.69 -5.33 Q 120.74 -6.72 120.74 -8.59 L 120.74 -8.59 L 120.74 -22.9 Q 120.74 -24.76 120.69 -26.16 Q 120.65 -27.55 120.56 -28.58 Q 120.47 -29.6 120.35 -30.28 Q 120.23 -30.96 120.1 -31.42 L 120.1 -31.42 L 120.1 -31.51 Z M 173.77 -31.51 L 173.77 -31.51 Q 176.52 -31.51 179.23 -31.53 Q 181.94 -31.55 184.21 -31.59 Q 186.47 -31.62 188.07 -31.68 Q 189.68 -31.75 190.25 -31.86 L 190.25 -31.86 L 189.17 -28.94 Q 188.45 -29.14 187.48 -29.29 L 187.48 -29.29 Q 186.64 -29.42 185.45 -29.54 Q 184.25 -29.66 182.69 -29.66 L 182.69 -29.66 Q 182.16 -29.66 181.43 -29.63 Q 180.69 -29.6 180.01 -29.55 L 180.01 -29.55 Q 179.22 -29.51 178.4 -29.47 L 178.4 -29.47 L 178.4 -17.47 Q 180.67 -17.49 182.49 -17.6 Q 184.32 -17.71 185.59 -17.82 L 185.59 -17.82 Q 187.08 -17.95 188.23 -18.13 L 188.23 -18.13 L 187.55 -14.94 Q 186.03 -15.14 184.45 -15.31 L 184.45 -15.31 Q 183.08 -15.47 181.48 -15.59 Q 179.88 -15.71 178.4 -15.71 L 178.4 -15.71 L 178.4 -1.93 Q 181 -1.93 183.17 -2.15 Q 185.35 -2.37 186.97 -2.66 L 186.97 -2.66 Q 188.86 -2.97 190.42 -3.38 L 190.42 -3.38 L 189.79 0.18 Q 189.52 0.15 189 0.13 Q 188.47 0.11 187.82 0.09 Q 187.17 0.07 186.46 0.05 Q 185.74 0.04 185.11 0.03 Q 184.47 0.02 183.97 0.01 Q 183.48 0 183.26 0 L 183.26 0 L 173.77 0 L 173.77 -0.09 Q 173.9 -0.55 174.02 -1.23 Q 174.14 -1.91 174.23 -2.92 Q 174.32 -3.93 174.36 -5.33 Q 174.41 -6.72 174.41 -8.59 L 174.41 -8.59 L 174.41 -22.9 Q 174.41 -24.76 174.36 -26.16 Q 174.32 -27.55 174.23 -28.58 Q 174.14 -29.6 174.02 -30.28 Q 173.9 -30.96 173.77 -31.42 L 173.77 -31.42 L 173.77 -31.51 Z M 229.37 -30.61 L 229.22 -26.5 L 228.74 -26.5 Q 228.56 -27 228.18 -27.64 Q 227.79 -28.28 227.16 -28.84 Q 226.54 -29.4 225.65 -29.77 Q 224.76 -30.15 223.55 -30.15 L 223.55 -30.15 Q 222.47 -30.15 221.64 -29.82 Q 220.8 -29.49 220.24 -28.89 Q 219.68 -28.3 219.4 -27.49 Q 219.11 -26.67 219.11 -25.69 L 219.11 -25.69 Q 219.11 -24.1 220 -22.66 Q 220.89 -21.23 222.23 -19.82 Q 223.57 -18.41 225.13 -17.01 Q 226.69 -15.6 228.03 -14.08 Q 229.37 -12.57 230.26 -10.91 Q 231.15 -9.25 231.15 -7.34 L 231.15 -7.34 Q 231.15 -5.91 230.66 -4.47 Q 230.16 -3.03 229.13 -1.89 Q 228.1 -0.75 226.47 -0.03 Q 224.85 0.68 222.6 0.68 L 222.6 0.68 Q 221.35 0.68 220.22 0.45 Q 219.09 0.22 218.13 -0.12 Q 217.18 -0.46 216.42 -0.86 Q 215.66 -1.25 215.18 -1.58 L 215.18 -1.58 L 215.68 -6.44 L 216.23 -6.44 Q 216.47 -5.41 217.02 -4.47 Q 217.57 -3.54 218.38 -2.82 Q 219.18 -2.11 220.21 -1.68 Q 221.24 -1.25 222.47 -1.25 L 222.47 -1.25 Q 223.59 -1.25 224.48 -1.59 Q 225.37 -1.93 226.01 -2.54 Q 226.65 -3.14 226.99 -3.98 Q 227.33 -4.81 227.33 -5.8 L 227.33 -5.8 Q 227.33 -7.19 226.82 -8.36 Q 226.32 -9.54 225.49 -10.59 Q 224.67 -11.65 223.63 -12.63 Q 222.58 -13.62 221.48 -14.62 Q 220.39 -15.62 219.34 -16.68 Q 218.3 -17.73 217.47 -18.93 Q 216.65 -20.13 216.15 -21.5 Q 215.64 -22.87 215.64 -24.52 L 215.64 -24.52 Q 215.64 -26.26 216.31 -27.65 Q 216.98 -29.05 218.09 -30.04 Q 219.2 -31.03 220.61 -31.55 Q 222.01 -32.08 223.51 -32.08 L 223.51 -32.08 Q 224.6 -32.08 225.53 -31.9 Q 226.45 -31.73 227.19 -31.49 Q 227.92 -31.25 228.47 -31 Q 229.02 -30.76 229.37 -30.61 L 229.37 -30.61 Z M 269.88 -30.61 L 269.73 -26.5 L 269.24 -26.5 Q 269.07 -27 268.68 -27.64 Q 268.3 -28.28 267.67 -28.84 Q 267.05 -29.4 266.16 -29.77 Q 265.27 -30.15 264.06 -30.15 L 264.06 -30.15 Q 262.98 -30.15 262.15 -29.82 Q 261.31 -29.49 260.75 -28.89 Q 260.19 -28.3 259.91 -27.49 Q 259.62 -26.67 259.62 -25.69 L 259.62 -25.69 Q 259.62 -24.1 260.51 -22.66 Q 261.4 -21.23 262.74 -19.82 Q 264.08 -18.41 265.64 -17.01 Q 267.2 -15.6 268.54 -14.08 Q 269.88 -12.57 270.77 -10.91 Q 271.66 -9.25 271.66 -7.34 L 271.66 -7.34 Q 271.66 -5.91 271.17 -4.47 Q 270.67 -3.03 269.64 -1.89 Q 268.61 -0.75 266.98 -0.03 Q 265.35 0.68 263.11 0.68 L 263.11 0.68 Q 261.86 0.68 260.73 0.45 Q 259.6 0.22 258.64 -0.12 Q 257.69 -0.46 256.93 -0.86 Q 256.17 -1.25 255.69 -1.58 L 255.69 -1.58 L 256.19 -6.44 L 256.74 -6.44 Q 256.98 -5.41 257.53 -4.47 Q 258.08 -3.54 258.88 -2.82 Q 259.69 -2.11 260.72 -1.68 Q 261.75 -1.25 262.98 -1.25 L 262.98 -1.25 Q 264.1 -1.25 264.99 -1.59 Q 265.88 -1.93 266.52 -2.54 Q 267.16 -3.14 267.5 -3.98 Q 267.84 -4.81 267.84 -5.8 L 267.84 -5.8 Q 267.84 -7.19 267.33 -8.36 Q 266.83 -9.54 266 -10.59 Q 265.18 -11.65 264.14 -12.63 Q 263.09 -13.62 261.99 -14.62 Q 260.89 -15.62 259.85 -16.68 Q 258.81 -17.73 257.98 -18.93 Q 257.16 -20.13 256.65 -21.5 Q 256.15 -22.87 256.15 -24.52 L 256.15 -24.52 Q 256.15 -26.26 256.82 -27.65 Q 257.49 -29.05 258.6 -30.04 Q 259.71 -31.03 261.11 -31.55 Q 262.52 -32.08 264.01 -32.08 L 264.01 -32.08 Q 265.11 -32.08 266.04 -31.9 Q 266.96 -31.73 267.7 -31.49 Q 268.43 -31.25 268.98 -31 Q 269.53 -30.76 269.88 -30.61 L 269.88 -30.61 Z M 297.51 0 L 297.51 -0.09 Q 297.65 -0.55 297.76 -1.23 Q 297.87 -1.91 297.95 -2.92 Q 298.04 -3.93 298.09 -5.33 Q 298.13 -6.72 298.13 -8.59 L 298.13 -8.59 L 298.13 -22.9 Q 298.13 -24.76 298.09 -26.16 Q 298.04 -27.55 297.95 -28.58 Q 297.87 -29.6 297.76 -30.28 Q 297.65 -30.96 297.51 -31.42 L 297.51 -31.42 L 297.51 -31.51 L 302.77 -31.51 L 302.77 -31.42 Q 302.63 -30.96 302.51 -30.28 Q 302.39 -29.6 302.32 -28.58 Q 302.24 -27.55 302.18 -26.16 Q 302.13 -24.76 302.13 -22.9 L 302.13 -22.9 L 302.13 -8.59 Q 302.13 -6.72 302.18 -5.33 Q 302.24 -3.93 302.32 -2.92 Q 302.39 -1.91 302.51 -1.23 Q 302.63 -0.55 302.77 -0.09 L 302.77 -0.09 L 302.77 0 L 297.51 0 Z M 342.79 -30.61 L 342.64 -26.5 L 342.15 -26.5 Q 341.98 -27 341.59 -27.64 Q 341.21 -28.28 340.58 -28.84 Q 339.96 -29.4 339.07 -29.77 Q 338.18 -30.15 336.97 -30.15 L 336.97 -30.15 Q 335.89 -30.15 335.06 -29.82 Q 334.22 -29.49 333.66 -28.89 Q 333.1 -28.3 332.82 -27.49 Q 332.53 -26.67 332.53 -25.69 L 332.53 -25.69 Q 332.53 -24.1 333.42 -22.66 Q 334.31 -21.23 335.65 -19.82 Q 336.99 -18.41 338.55 -17.01 Q 340.11 -15.6 341.45 -14.08 Q 342.79 -12.57 343.68 -10.91 Q 344.57 -9.25 344.57 -7.34 L 344.57 -7.34 Q 344.57 -5.91 344.08 -4.47 Q 343.58 -3.03 342.55 -1.89 Q 341.52 -0.75 339.89 -0.03 Q 338.26 0.68 336.02 0.68 L 336.02 0.68 Q 334.77 0.68 333.64 0.45 Q 332.51 0.22 331.55 -0.12 Q 330.6 -0.46 329.84 -0.86 Q 329.08 -1.25 328.6 -1.58 L 328.6 -1.58 L 329.1 -6.44 L 329.65 -6.44 Q 329.89 -5.41 330.44 -4.47 Q 330.99 -3.54 331.79 -2.82 Q 332.6 -2.11 333.63 -1.68 Q 334.66 -1.25 335.89 -1.25 L 335.89 -1.25 Q 337.01 -1.25 337.9 -1.59 Q 338.79 -1.93 339.43 -2.54 Q 340.07 -3.14 340.41 -3.98 Q 340.75 -4.81 340.75 -5.8 L 340.75 -5.8 Q 340.75 -7.19 340.24 -8.36 Q 339.74 -9.54 338.91 -10.59 Q 338.09 -11.65 337.05 -12.63 Q 336 -13.62 334.9 -14.62 Q 333.8 -15.62 332.76 -16.68 Q 331.72 -17.73 330.89 -18.93 Q 330.07 -20.13 329.56 -21.5 Q 329.06 -22.87 329.06 -24.52 L 329.06 -24.52 Q 329.06 -26.26 329.73 -27.65 Q 330.4 -29.05 331.51 -30.04 Q 332.62 -31.03 334.02 -31.55 Q 335.43 -32.08 336.92 -32.08 L 336.92 -32.08 Q 338.02 -32.08 338.95 -31.9 Q 339.87 -31.73 340.6 -31.49 Q 341.34 -31.25 341.89 -31 Q 342.44 -30.76 342.79 -30.61 L 342.79 -30.61 Z M 368.67 0 L 368.67 -0.09 Q 368.91 -0.44 369.22 -1.13 Q 369.52 -1.82 369.7 -2.88 L 369.7 -2.88 Q 369.94 -4.42 370.24 -6.34 Q 370.53 -8.26 370.85 -10.37 Q 371.17 -12.48 371.49 -14.69 Q 371.81 -16.9 372.1 -19.04 Q 372.4 -21.18 372.68 -23.17 Q 372.95 -25.16 373.17 -26.81 Q 373.39 -28.45 373.53 -29.67 Q 373.68 -30.89 373.74 -31.51 L 373.74 -31.51 L 376.53 -31.51 L 390.35 -5.67 L 404.06 -31.51 L 406.15 -31.51 L 409.75 -5.41 Q 409.91 -4.17 410.08 -3.3 Q 410.26 -2.42 410.44 -1.79 Q 410.61 -1.16 410.78 -0.76 Q 410.94 -0.35 411.1 -0.09 L 411.1 -0.09 L 411.1 0 L 405.56 0 L 405.56 -0.09 Q 405.67 -0.33 405.77 -0.88 Q 405.87 -1.43 405.87 -2.2 L 405.87 -2.2 Q 405.87 -2.48 405.84 -2.78 Q 405.82 -3.08 405.78 -3.43 L 405.78 -3.43 L 402.99 -24.48 L 390.02 -0.09 L 388.51 -0.26 L 375.46 -24.7 Q 374.69 -19.49 374.12 -15.07 L 374.12 -15.07 Q 373.87 -13.18 373.63 -11.3 Q 373.39 -9.43 373.2 -7.8 Q 373.02 -6.17 372.91 -4.93 Q 372.8 -3.69 372.8 -3.1 L 372.8 -3.1 Q 372.8 -2.35 372.84 -1.78 Q 372.88 -1.21 372.93 -0.81 L 372.93 -0.81 Q 372.99 -0.35 373.06 0 L 373.06 0 L 368.67 0 Z" stroke-linecap="round" />
</g>
</g>
</g>
<g transform="matrix(1.9211538461538462 0 0 1.9211538461538462 626.1883357790481 446.8356170388949)" id="tagline-3a78d944-c0db-44d4-8ad5-60158c925687-logo"  >
<g style=""  paint-order="stroke"   >
		<g transform="matrix(1 0 0 1 0 0)" id="tagline-3a78d944-c0db-44d4-8ad5-60158c925687-logo-path-0"  >
<linearGradient id="SVGID_165699" gradientUnits="userSpaceOnUse" gradientTransform="matrix(1 0 0 1 2.219999999999999 -96.04)"  x1="-1.9403387182325673" y1="-18.24816093749996" x2="-1.9403387182325673" y2="128.75183906250004">
<stop offset="0%" style="stop-color:rgb(23,234,217);stop-opacity: 1"/>
<stop offset="100%" style="stop-color:rgb(96,120,234);stop-opacity: 1"/>
</linearGradient>
<path style="stroke: rgb(255,255,255); stroke-width: 0; stroke-dasharray: none; stroke-linecap: butt; stroke-dashoffset: 0; stroke-linejoin: miter; stroke-miterlimit: 4; fill: url(#SVGID_165699); fill-rule: nonzero; opacity: 1;"  paint-order="stroke"  transform=" translate(-88.80499999999999, 38.53)" d="M 2.22 3.62 L 2.22 3.62 Q 2.22 -3.94 9.65 -18.6 L 9.65 -18.6 Q 12.89 -18.28 17.46 -16.19 Q 22.03 -14.09 23.68 -12.06 L 23.68 -12.06 Q 19.55 -7.74 16.92 -2.6 Q 14.28 2.54 14.28 6.22 L 14.28 6.22 Q 14.28 10.85 18.09 13.39 L 18.09 13.39 Q 26.03 10.41 33.55 2.22 Q 41.07 -5.97 46.91 -17.96 L 46.91 -17.96 Q 53.51 -31.61 57.95 -51.92 Q 62.4 -72.24 62.4 -85 L 62.4 -85 Q 62.4 -90.2 61.89 -96.04 L 61.89 -96.04 Q 66.71 -96.04 72.05 -94.23 Q 77.38 -92.42 81.5 -89.57 L 81.5 -89.57 Q 76.24 -62.78 73.7 -53.32 L 73.7 -53.32 Q 67.6 -30.21 60.37 -15.39 Q 53.13 -0.57 43.67 8.44 L 43.67 8.44 Q 34.34 17.39 26.15 18.98 L 26.15 18.98 Q 15.68 18.85 8.95 14.6 Q 2.22 10.35 2.22 3.62 Z M 77.82 -8.7 L 77.82 -8.7 Q 77.82 -13.08 82.2 -33.39 L 82.2 -33.39 Q 82.65 -35.23 83.44 -37.64 Q 84.23 -40.05 85.69 -43.51 Q 87.15 -46.97 89.5 -49.92 Q 91.85 -52.88 94.58 -54.21 L 94.58 -54.21 Q 97.25 -53.64 100.8 -51.35 Q 104.36 -49.07 106.64 -45.64 L 106.64 -45.64 Q 104.36 -43.1 102.58 -40.43 Q 100.8 -37.77 99.28 -34.53 Q 97.75 -31.29 96.83 -29.07 Q 95.91 -26.85 94.36 -22.57 Q 92.8 -18.28 91.98 -16.12 L 91.98 -16.12 Q 88.17 -6.16 88.04 -1.97 L 88.04 -1.97 Q 88.04 0.63 87.92 1.49 Q 87.79 2.35 87.28 2.35 L 87.28 2.35 Q 86.65 2.35 85.22 1.68 Q 83.79 1.02 82.08 -0.25 Q 80.36 -1.52 79.09 -3.78 Q 77.82 -6.03 77.82 -8.7 Z M 101.44 -71.73 L 101.44 -71.73 Q 101.44 -74.08 102.67 -79.44 Q 103.91 -84.8 105.5 -88.8 L 105.5 -88.8 Q 108.48 -88.8 113.88 -85.69 Q 119.27 -82.58 121.24 -79.66 L 121.24 -79.66 Q 118.26 -76.87 112.86 -70.3 Q 107.47 -63.73 106.51 -61.64 L 106.51 -61.64 Q 104.93 -61.89 103.78 -62.97 Q 102.64 -64.05 102.64 -65.13 L 102.64 -65.13 Q 102.64 -65.95 103.02 -67.48 L 103.02 -67.48 Q 101.44 -69.06 101.44 -71.73 Z M 105.5 -3.62 L 105.5 -3.62 Q 105.5 -8.63 108.23 -18.47 Q 110.96 -28.31 115.21 -38.09 L 115.21 -38.09 Q 118.26 -45.2 121.43 -51.07 Q 124.6 -56.94 126.57 -59.83 Q 128.54 -62.71 129.37 -63.03 L 129.37 -63.03 Q 132.73 -61.95 135.74 -58.43 Q 138.76 -54.91 140.16 -50.59 L 140.16 -50.59 Q 138.76 -47.1 130.48 -33.13 Q 122.19 -19.17 121.62 -14.66 L 121.62 -14.66 Q 124.54 -17.84 131.05 -25.52 Q 137.55 -33.2 138.89 -34.59 L 138.89 -34.59 Q 142.31 -38.28 144.95 -40.85 Q 147.58 -43.42 151.68 -47 Q 155.77 -50.59 159.48 -52.53 Q 163.2 -54.46 166.18 -54.46 L 166.18 -54.46 Q 171.7 -54.46 175.39 -47.48 L 175.39 -47.48 Q 175.39 -47.35 174.97 -47.1 Q 174.56 -46.85 173.61 -46.12 Q 172.66 -45.39 171.64 -44.18 L 171.64 -44.18 Q 167.32 -38.59 162.72 -28.06 Q 158.12 -17.52 158.12 -10.28 L 158.12 -10.28 Q 158.12 -7.24 158.88 -6.22 Q 159.64 -5.21 161.36 -5.21 L 161.36 -5.21 Q 162.37 -5.21 164.34 -5.84 Q 166.31 -6.47 166.82 -6.47 L 166.82 -6.47 Q 167.26 -6.22 167.64 -5.36 Q 168.02 -4.51 168.02 -3.87 L 168.02 -3.87 Q 165.93 -1.97 162.47 -0.25 Q 159.01 1.46 156.85 1.46 L 156.85 1.46 Q 149.87 1.46 147.17 -2.22 Q 144.47 -5.9 144.47 -12.38 L 144.47 -12.38 Q 144.47 -15.93 145.96 -20.98 Q 147.46 -26.03 151.65 -35.74 L 151.65 -35.74 Q 151.39 -35.74 149.93 -34.98 Q 148.47 -34.21 145.93 -32.37 Q 143.39 -30.53 141.11 -28.31 L 141.11 -28.31 Q 129.81 -17.33 120.16 -4 L 120.16 -4 Q 117.88 -0.7 116.61 0.98 Q 115.34 2.67 113.91 4.28 Q 112.48 5.9 111.46 6.47 L 111.46 6.47 Q 106.96 3.87 105.5 -3.62 Z" stroke-linecap="round" />
</g>
</g>
</g>
</svg>